<?xml version="1.0" encoding="UTF-8" standalone="no"?>
<svg
   xmlns:dc="http://purl.org/dc/elements/1.1/"
   xmlns:cc="http://creativecommons.org/ns#"
   xmlns:rdf="http://www.w3.org/1999/02/22-rdf-syntax-ns#"
   xmlns:svg="http://www.w3.org/2000/svg"
   xmlns="http://www.w3.org/2000/svg"
   xmlns:sodipodi="http://sodipodi.sourceforge.net/DTD/sodipodi-0.dtd"
   xmlns:inkscape="http://www.inkscape.org/namespaces/inkscape"
   height="24"
   width="24"
   version="1.1"
   id="svg6315"
   sodipodi:docname="zoomLocked.svg"
   inkscape:version="0.92.4 (5da689c313, 2019-01-14)"
   inkscape:export-filename="W:\My Documents\GitHub\qgis-lockzoom-plugin\images\zoomLocked.png"
   inkscape:export-xdpi="96"
   inkscape:export-ydpi="96">
  <metadata
     id="metadata6321">
    <rdf:RDF>
      <cc:Work
         rdf:about="">
        <dc:format>image/svg+xml</dc:format>
        <dc:type
           rdf:resource="http://purl.org/dc/dcmitype/StillImage" />
        <dc:title />
      </cc:Work>
    </rdf:RDF>
  </metadata>
  <defs
     id="defs6319" />
  <sodipodi:namedview
     pagecolor="#ffffff"
     bordercolor="#666666"
     borderopacity="1"
     objecttolerance="10"
     gridtolerance="10"
     guidetolerance="10"
     inkscape:pageopacity="0"
     inkscape:pageshadow="2"
     inkscape:window-width="935"
     inkscape:window-height="618"
     id="namedview6317"
     showgrid="false"
     inkscape:zoom="9.8333333"
     inkscape:cx="8.2600357"
     inkscape:cy="12"
     inkscape:window-x="496"
     inkscape:window-y="78"
     inkscape:window-maximized="0"
     inkscape:current-layer="svg6315" />
  <path
     d="M17.961 7A5.961 6.074 0 0 1 12 13.074 5.961 6.074 0 0 1 6.039 7 5.961 6.074 0 0 1 12 .926 5.961 6.074 0 0 1 17.961 7z"
     transform="matrix(1.40036 0 0 1.3742 -1.674 -.75)"
     opacity=".8"
     fill="#e6e6e6"
     stroke="#505050"
     stroke-width=".752"
     stroke-linecap="round"
     stroke-linejoin="round"
     stroke-dashoffset="7"
     id="path6305" />
  <path
     d="M7.826 14.088c0 2.086 2.087 2.086 2.087 2.086l-7.304 7.304-2.087-2.087z"
     fill="#ffcc30"
     fill-rule="evenodd"
     stroke="#505050"
     stroke-linejoin="round"
     stroke-width="1.043"
     id="path6307" />
  <path
     d="M6.26 15.653l2.088-2.087 2.087 2.087-2.087 2.087z"
     fill-rule="evenodd"
     stroke="#505050"
     stroke-linejoin="round"
     stroke-width="1.043"
     id="path6309" />
  <path
     d="M10.435 4.175c2.087-3.13 4.635-3.545 6.26-2.087 1.626 1.46-2.086 1.044-4.173 3.13-2.087 2.088 0 6.261-2.087 6.261s-2.087-4.173 0-7.304z"
     fill="#fcffff"
     fill-rule="evenodd"
     opacity=".7"
     id="path6311" />
  <path
     d="M2.087 20.87l4.174-4.174"
     opacity=".5"
     stroke="#fcffff"
     stroke-width="1.043"
     stroke-linecap="round"
     stroke-linejoin="round"
     overflow="visible"
     id="path6313" />
  <path
     id="path4570"
     d="m 10.775096,12.748457 c 0.150182,-4.9155609 1.207821,-7.1415965 4.861829,-6.841616 3.652735,0.298693 4.474918,2.6766501 4.322191,7.593498"
     inkscape:connector-curvature="0"
     style="fill:none;stroke:#888a85;stroke-width:3.00050473;stroke-linecap:square;stroke-linejoin:round" />
  <path
     id="path4572"
     d="m 10.756005,12.748457 c 0.152728,-4.9155609 1.209094,-7.1982452 4.861829,-6.8982647 3.652735,0.298693 4.474918,2.7332988 4.323464,7.6501467"
     inkscape:connector-curvature="0"
     style="fill:none;stroke:#8bf11e;stroke-width:1;stroke-linecap:square;stroke-linejoin:round;fill-opacity:1;stroke-miterlimit:4;stroke-dasharray:none;stroke-opacity:1"
     inkscape:export-filename="W:\My Documents\GitHub\qgis-resources\qgis-lockzoom-plugin\images\zoomLocked.png"
     inkscape:export-xdpi="96"
     inkscape:export-ydpi="96" />
  <rect
     id="rect4574"
     y="13.566"
     x="8.3479996"
     width="14.00003"
     ry="1.0003642"
     rx="0.84636545"
     height="9.01229"
     style="fill:#a4f11e;stroke:#c4a000;stroke-width:1;stroke-linecap:square;fill-opacity:1;stroke-miterlimit:4;stroke-dasharray:none" />
</svg>
