<?xml version="1.0" encoding="UTF-8" standalone="no"?>
<svg
   xmlns:dc="http://purl.org/dc/elements/1.1/"
   xmlns:cc="http://creativecommons.org/ns#"
   xmlns:rdf="http://www.w3.org/1999/02/22-rdf-syntax-ns#"
   xmlns:svg="http://www.w3.org/2000/svg"
   xmlns="http://www.w3.org/2000/svg"
   xmlns:sodipodi="http://sodipodi.sourceforge.net/DTD/sodipodi-0.dtd"
   xmlns:inkscape="http://www.inkscape.org/namespaces/inkscape"
   height="24"
   width="24"
   version="1.1"
   id="svg6315"
   sodipodi:docname="zoomUnlocked.svg"
   inkscape:version="0.92.4 (5da689c313, 2019-01-14)"
   inkscape:export-filename="W:\My Documents\GitHub\qgis-lockzoom-plugin\images\zoomUnlocked.png"
   inkscape:export-xdpi="96"
   inkscape:export-ydpi="96">
  <metadata
     id="metadata6321">
    <rdf:RDF>
      <cc:Work
         rdf:about="">
        <dc:format>image/svg+xml</dc:format>
        <dc:type
           rdf:resource="http://purl.org/dc/dcmitype/StillImage" />
        <dc:title />
      </cc:Work>
    </rdf:RDF>
  </metadata>
  <defs
     id="defs6319" />
  <sodipodi:namedview
     pagecolor="#ffffff"
     bordercolor="#666666"
     borderopacity="1"
     objecttolerance="10"
     gridtolerance="10"
     guidetolerance="10"
     inkscape:pageopacity="0"
     inkscape:pageshadow="2"
     inkscape:window-width="1266"
     inkscape:window-height="851"
     id="namedview6317"
     showgrid="false"
     inkscape:zoom="9.8333333"
     inkscape:cx="13.525424"
     inkscape:cy="12"
     inkscape:window-x="298"
     inkscape:window-y="47"
     inkscape:window-maximized="0"
     inkscape:current-layer="svg6315" />
  <path
     d="M17.961 7A5.961 6.074 0 0 1 12 13.074 5.961 6.074 0 0 1 6.039 7 5.961 6.074 0 0 1 12 .926 5.961 6.074 0 0 1 17.961 7z"
     transform="matrix(1.40036 0 0 1.3742 -1.674 -.75)"
     opacity=".8"
     fill="#e6e6e6"
     stroke="#505050"
     stroke-width=".752"
     stroke-linecap="round"
     stroke-linejoin="round"
     stroke-dashoffset="7"
     id="path6305" />
  <path
     d="M7.826 14.088c0 2.086 2.087 2.086 2.087 2.086l-7.304 7.304-2.087-2.087z"
     fill="#ffcc30"
     fill-rule="evenodd"
     stroke="#505050"
     stroke-linejoin="round"
     stroke-width="1.043"
     id="path6307" />
  <path
     d="M6.26 15.653l2.088-2.087 2.087 2.087-2.087 2.087z"
     fill-rule="evenodd"
     stroke="#505050"
     stroke-linejoin="round"
     stroke-width="1.043"
     id="path6309" />
  <path
     d="M10.435 4.175c2.087-3.13 4.635-3.545 6.26-2.087 1.626 1.46-2.086 1.044-4.173 3.13-2.087 2.088 0 6.261-2.087 6.261s-2.087-4.173 0-7.304z"
     fill="#fcffff"
     fill-rule="evenodd"
     opacity=".7"
     id="path6311" />
  <path
     d="M2.087 20.87l4.174-4.174"
     opacity=".5"
     stroke="#fcffff"
     stroke-width="1.043"
     stroke-linecap="round"
     stroke-linejoin="round"
     overflow="visible"
     id="path6313" />
  <g
     style="stroke-width:0.78600001;stroke-linecap:square"
     transform="matrix(1.27273,0,0,1.27293,5.166175,-16.347855)"
     id="g5159">
    <path
       style="fill:none;stroke:#888a85;stroke-width:2.35700011;stroke-linejoin:round"
       inkscape:connector-curvature="0"
       d="m 6,19.216 c 0.665,-0.947 2.307,-2.405 4.562,-1.009 2.37,1.636 1.974,3.68 -0.039,6.928"
       id="path5153" />
    <path
       style="fill:none;stroke:#eeeeec;stroke-linejoin:round"
       inkscape:connector-curvature="0"
       d="M 6,19.216 C 7,18 8.193,16.57 10.562,18.207 c 2.37,1.636 1.974,3.68 -0.039,6.928"
       id="path5155" />
    <rect
       style="fill:#f1db1e;stroke:#c4a000"
       height="7"
       rx="0.66500002"
       ry="0.78600001"
       width="11"
       x="2.5"
       y="23.5"
       id="rect5157" />
  </g>
</svg>
