<svg height="24" width="24" xmlns="http://www.w3.org/2000/svg"><g stroke="#505050"><path d="m 17.961 7 a 5.961 6.074 0 0 1 -5.961 6.074 5.961 6.074 0 0 1 -5.961 -6.074 5.961 6.074 0 0 1 5.961 -6.074 5.961 6.074 0 0 1 5.961 6.074 z" style="opacity:.8;fill:#e6e6e6;stroke-width:.752;stroke-linecap:round;stroke-linejoin:round;stroke-dashoffset:7" transform="matrix(1.40036 0 0 1.3742 -1.674 -.75)"/><path d="m 7.826 14.088 c 0 2.086 2.087 2.086 2.087 2.086 l -7.304 7.304 -2.087 -2.087 z" fill="#ffcc30" fill-rule="evenodd" stroke-linejoin="round" stroke-width="1.043"/><path d="m 6.26 15.653 2.088 -2.087 2.087 2.087 -2.087 2.087 z" fill-rule="evenodd" stroke-linejoin="round" stroke-width="1.043"/></g><path d="m 10.435 4.175 c 2.087 -3.13 4.635 -3.545 6.26 -2.087 1.626 1.46 -2.086 1.044 -4.173 3.13 -2.087 2.088 0 6.261 -2.087 6.261 s -2.087 -4.173 0 -7.304 z" fill="#fcffff" fill-rule="evenodd" opacity=".7"/><path d="m 2.087 20.87 4.174 -4.174" opacity=".5" stroke="#fcffff" stroke-linecap="round" stroke-linejoin="round" stroke-width="1.043"/><path d="m 10.775096 12.748457 c .150182 -4.9155609 1.207821 -7.1415965 4.861829 -6.841616 3.652735 .298693 4.474918 2.6766501 4.322191 7.593498" fill="none" stroke="#888a85" stroke-linecap="square" stroke-linejoin="round" stroke-width="3.00050473"/><path d="m 10.756005 12.748457 c .152728 -4.9155609 1.209094 -7.1982452 4.861829 -6.8982647 3.652735 .298693 4.474918 2.7332988 4.323464 7.6501467" fill="none" stroke="#8bf11e" stroke-linecap="square" stroke-linejoin="round"/><rect fill="#a4f11e" height="9.01229" rx=".84636545" ry="1.0003642" stroke="#c4a000" stroke-linecap="square" width="14.00003" x="8.3479996" y="13.566"/></svg>